<?xml version="1.0" encoding="UTF-8" standalone="no"?>
<svg width="1920" height="600" xmlns="http://www.w3.org/2000/svg">
  <defs>
    <linearGradient id="skyGradient" x1="0%" y1="0%" x2="0%" y2="100%">
      <stop offset="0%" style="stop-color:#87CEEB;stop-opacity:1" />
      <stop offset="100%" style="stop-color:#1E90FF;stop-opacity:1" />
    </linearGradient>
    <linearGradient id="buildingGradient" x1="0%" y1="0%" x2="0%" y2="100%">
      <stop offset="0%" style="stop-color:#708090;stop-opacity:1" />
      <stop offset="100%" style="stop-color:#2F4F4F;stop-opacity:1" />
    </linearGradient>
  </defs>
  
  <!-- Sky background -->
  <rect width="1920" height="600" fill="url(#skyGradient)"/>
  
  <!-- Sun -->
  <circle cx="1700" cy="100" r="60" fill="#FFD700"/>
  
  <!-- Distant mountains -->
  <path d="M0,400 L200,300 L400,350 L600,280 L800,320 L1000,250 L1200,300 L1400,280 L1600,350 L1800,300 L1920,320 L1920,600 L0,600 Z" fill="#4682B4" opacity="0.7"/>
  
  <!-- City skyline -->
  <rect x="100" y="350" width="100" height="250" fill="url(#buildingGradient)"/>
  <rect x="220" y="300" width="80" height="300" fill="url(#buildingGradient)"/>
  <rect x="320" y="380" width="120" height="220" fill="url(#buildingGradient)"/>
  <rect x="460" y="280" width="70" height="320" fill="url(#buildingGradient)"/>
  <rect x="550" y="350" width="90" height="250" fill="url(#buildingGradient)"/>
  <rect x="660" y="320" width="60" height="280" fill="url(#buildingGradient)"/>
  <rect x="740" y="250" width="100" height="350" fill="url(#buildingGradient)"/>
  <rect x="860" y="300" width="80" height="300" fill="url(#buildingGradient)"/>
  <rect x="960" y="350" width="110" height="250" fill="url(#buildingGradient)"/>
  <rect x="1090" y="280" width="70" height="320" fill="url(#buildingGradient)"/>
  <rect x="1180" y="320" width="90" height="280" fill="url(#buildingGradient)"/>
  <rect x="1290" y="350" width="60" height="250" fill="url(#buildingGradient)"/>
  <rect x="1370" y="270" width="100" height="330" fill="url(#buildingGradient)"/>
  <rect x="1490" y="320" width="80" height="280" fill="url(#buildingGradient)"/>
  <rect x="1590" y="380" width="110" height="220" fill="url(#buildingGradient)"/>
  <rect x="1720" y="300" width="70" height="300" fill="url(#buildingGradient)"/>
  <rect x="1810" y="350" width="90" height="250" fill="url(#buildingGradient)"/>
  
  <!-- Windows on buildings (just a few examples) -->
  <rect x="115" y="370" width="15" height="20" fill="#F0F8FF"/>
  <rect x="170" y="370" width="15" height="20" fill="#F0F8FF"/>
  <rect x="115" y="410" width="15" height="20" fill="#F0F8FF"/>
  <rect x="170" y="410" width="15" height="20" fill="#F0F8FF"/>
  <rect x="115" y="450" width="15" height="20" fill="#F0F8FF"/>
  <rect x="170" y="450" width="15" height="20" fill="#F0F8FF"/>
  
  <rect x="235" y="320" width="15" height="20" fill="#F0F8FF"/>
  <rect x="270" y="320" width="15" height="20" fill="#F0F8FF"/>
  <rect x="235" y="360" width="15" height="20" fill="#F0F8FF"/>
  <rect x="270" y="360" width="15" height="20" fill="#F0F8FF"/>
  
  <!-- Foreground buildings with more detail -->
  <rect x="400" y="320" width="150" height="280" fill="#2F4F4F"/>
  <rect x="900" y="280" width="180" height="320" fill="#2F4F4F"/>
  <rect x="1300" y="300" width="160" height="300" fill="#2F4F4F"/>
  
  <!-- Windows on foreground buildings -->
  <rect x="420" y="340" width="20" height="30" fill="#F0F8FF"/>
  <rect x="460" y="340" width="20" height="30" fill="#F0F8FF"/>
  <rect x="500" y="340" width="20" height="30" fill="#F0F8FF"/>
  <rect x="420" y="390" width="20" height="30" fill="#F0F8FF"/>
  <rect x="460" y="390" width="20" height="30" fill="#F0F8FF"/>
  <rect x="500" y="390" width="20" height="30" fill="#F0F8FF"/>
  
  <!-- Text overlay -->
  <text x="960" y="150" font-family="Arial" font-size="48" text-anchor="middle" fill="#FFFFFF" stroke="#000000" stroke-width="1">An Jia You Xuan</text>
  <text x="960" y="200" font-family="Arial" font-size="32" text-anchor="middle" fill="#FFFFFF" stroke="#000000" stroke-width="0.5">Luxury Properties</text>
</svg>
